<svg width="118" height="71" viewBox="0 0 118 71" fill="none" xmlns="http://www.w3.org/2000/svg">
<path d="M27.36 23.02L19.96 1.62H9.76V2.14C12.8 2.14 14 3.9 13 6.66L8.04 20.82C6.72 24.3 4 28.54 0.84 28.74V29.26H13.04V28.74C8.92 28.62 7.32 25.98 8.16 23.34L9.64 19.62H19.68L21.4 24.62C21.84 25.94 21.28 28.74 17.4 28.74V29.26H32.24V28.74C29.28 28.54 28.16 25.14 27.36 23.02ZM10.04 18.5L14.72 5.02L19.28 18.5H10.04ZM44.8194 10.9C42.0994 10.9 40.5794 12.5 39.4194 13.94V0.939998L31.1794 3.5V3.86C33.2194 3.86 34.0594 4.46 34.0594 6.46V27.06C35.2194 28.3 38.2194 29.7 41.4994 29.7C46.2994 29.7 51.2994 25.7 51.2994 18.42C51.2994 14.34 48.3794 10.9 44.8194 10.9ZM41.4994 28.78C40.2194 28.78 39.6594 27.98 39.4194 27.78V16.46C39.4194 14.98 40.2994 13.34 41.7394 13.34C44.0994 13.34 45.8194 16.86 45.8194 21.1C45.8194 25.7 44.0594 28.78 41.4994 28.78ZM63.7263 10.86C58.6463 10.86 54.0463 14.42 54.0463 20.26C54.0463 26.14 58.6463 29.66 63.7263 29.66C68.8463 29.66 73.4463 26.14 73.4463 20.26C73.4463 14.42 68.8463 10.86 63.7263 10.86ZM63.7263 28.74C61.2063 28.74 59.8063 25.42 59.8063 20.26C59.8063 15.02 61.2063 11.78 63.7263 11.78C66.2463 11.78 67.6463 15.02 67.6463 20.26C67.6463 25.5 66.2463 28.74 63.7263 28.74ZM94.4534 25.62V10.9L86.2134 13.42V13.82C88.2534 13.82 89.0934 14.42 89.0934 16.42L89.0534 26.02L88.6134 26.26C87.8134 26.7 86.6934 27.54 85.4134 27.54C83.7334 27.54 83.1734 26.34 83.1734 24.5V10.9L74.9334 13.42V13.82C76.9734 13.82 77.8134 14.42 77.8134 16.42V25.86C77.8134 27.94 79.1334 29.66 81.6934 29.66C83.8934 29.66 85.8934 28.66 89.0534 26.94V29.26H96.9734V28.74C94.9334 28.74 94.4534 27.66 94.4534 25.62ZM110.111 25.9C109.871 26.5 109.391 27.66 108.031 27.66C106.911 27.66 106.031 26.9 106.031 25.3V12.02H109.751V11.26H106.031V4.5H105.471C104.471 7.22 101.471 11.1 97.5906 11.26V12.02H100.671V25.3C100.671 27.9 102.111 29.66 105.551 29.66C108.191 29.66 110.071 27.86 110.711 25.9H110.111Z" fill="#161616"/>
<path d="M19.72 54.94C19.72 54.94 10.68 50.62 10.52 50.54C9.08 49.86 7.32 48.7 7.32 46.34C7.32 44.58 8.64 43.26 10.96 43.26C13.24 43.26 14.76 44.46 16.16 45.98C17.24 47.18 18.28 48.42 19.44 49.5C20.16 50.22 21.24 50.9 22.52 51.14H22.68C21.88 48.42 20.96 45.02 21.28 42.26H21C19.88 42.82 19.4 43.22 17.84 43.22C15.64 43.22 13.72 42.26 11 42.26C7.16 42.26 3.76 45.54 3.76 49.58C3.76 53.42 6.84 55.74 8.8 56.66C9 56.74 16.32 60.26 16.76 60.46C17.68 60.9 20.72 62.1 20.72 65.22C20.72 68.06 18.44 69.58 16 69.58C11.6 69.58 10.48 60.66 2 60.66C3.44 63.66 3.6 67.26 3.28 70.7H3.68C4.72 69.66 5.96 69.02 7.24 69.02C9.6 69.02 12.32 70.7 15.92 70.7C20.32 70.7 24.4 67.3 24.4 62.66C24.4 59.22 21.92 55.98 19.72 54.94ZM38.2606 66.9C38.0206 67.5 37.5406 68.66 36.1806 68.66C35.0606 68.66 34.1806 67.9 34.1806 66.3V53.02H37.9006V52.26H34.1806V45.5H33.6206C32.6206 48.22 29.6206 52.1 25.7406 52.26V53.02H28.8206V66.3C28.8206 68.9 30.2606 70.66 33.7006 70.66C36.3406 70.66 38.2206 68.86 38.8606 66.9H38.2606ZM59.7613 66.62V51.9L51.5213 54.42V54.82C53.5613 54.82 54.4013 55.42 54.4013 57.42L54.3613 67.02L53.9213 67.26C53.1213 67.7 52.0013 68.54 50.7213 68.54C49.0413 68.54 48.4813 67.34 48.4813 65.5V51.9L40.2413 54.42V54.82C42.2813 54.82 43.1213 55.42 43.1213 57.42V66.86C43.1213 68.94 44.4413 70.66 47.0013 70.66C49.2013 70.66 51.2013 69.66 54.3613 67.94V70.26H62.2813V69.74C60.2413 69.74 59.7613 68.66 59.7613 66.62ZM81.1756 66.46V41.9L72.8956 44.46V44.82C74.9356 44.82 75.7756 45.46 75.7756 47.46V53.7C75.4156 52.98 74.3756 51.86 72.4556 51.86C68.4156 51.86 63.9356 55.74 63.9356 62.38C63.9356 66.9 66.6956 70.66 70.7756 70.66C73.2556 70.66 75.1356 68.9 75.7756 67.62V67.74L75.9356 70.26H83.9356V69.74C81.8956 69.74 81.1756 68.5 81.1756 66.46ZM73.3756 68.26C70.9356 68.26 69.4156 64.82 69.4156 60.22C69.4156 56.7 70.8556 52.82 73.0556 52.82C74.4956 52.82 75.7756 54.82 75.7756 57.14V65.98C75.6156 66.66 74.9756 68.26 73.3756 68.26ZM90.9297 50.1C92.8097 50.1 94.3297 48.7 94.3297 46.94C94.3297 45.18 92.8097 43.74 90.9297 43.74C89.0897 43.74 87.5697 45.18 87.5697 46.94C87.5697 48.7 89.0897 50.1 90.9297 50.1ZM93.6897 66.5V51.9L85.4497 54.46V54.82C87.4897 54.82 88.3297 55.42 88.3297 57.42V66.58C88.3297 68.54 87.5697 69.78 85.5297 69.78V70.3H96.4497V69.78C94.4497 69.78 93.6897 68.54 93.6897 66.5ZM107.412 51.86C102.332 51.86 97.7322 55.42 97.7322 61.26C97.7322 67.14 102.332 70.66 107.412 70.66C112.532 70.66 117.132 67.14 117.132 61.26C117.132 55.42 112.532 51.86 107.412 51.86ZM107.412 69.74C104.892 69.74 103.492 66.42 103.492 61.26C103.492 56.02 104.892 52.78 107.412 52.78C109.932 52.78 111.332 56.02 111.332 61.26C111.332 66.5 109.932 69.74 107.412 69.74Z" fill="#D3A265"/>
</svg>
