<svg width="218" height="39" viewBox="0 0 218 39" fill="none" xmlns="http://www.w3.org/2000/svg">
<path d="M14.62 0.759999C7.42 0.759999 0.7 6.08 0.7 14.96C0.7 23.84 7.42 29.2 14.62 29.2C21.86 29.2 28.58 23.84 28.58 14.96C28.58 6.08 21.86 0.759999 14.62 0.759999ZM14.62 28.2C9.98 28.2 7.02 22.28 7.02 14.96C7.02 7.64 9.98 1.72 14.62 1.72C19.26 1.72 22.26 7.64 22.26 14.96C22.26 22.28 19.26 28.2 14.62 28.2ZM49.8925 25.12V10.4L41.6525 12.92V13.32C43.6925 13.32 44.5325 13.92 44.5325 15.92L44.4925 25.52L44.0525 25.76C43.2525 26.2 42.1325 27.04 40.8525 27.04C39.1725 27.04 38.6125 25.84 38.6125 24V10.4L30.3725 12.92V13.32C32.4125 13.32 33.2525 13.92 33.2525 15.92V25.36C33.2525 27.44 34.5725 29.16 37.1325 29.16C39.3325 29.16 41.3325 28.16 44.4925 26.44V28.76H52.4125V28.24C50.3725 28.24 49.8925 27.16 49.8925 25.12ZM67.3338 10.4C65.8138 10.4 64.5738 11.72 63.5738 12.8L62.0538 14.4V10.4L53.8138 12.96V13.32C55.8538 13.32 56.6938 13.92 56.6938 15.92V25.08C56.6938 27.04 55.9338 28.28 53.8938 28.28V28.8H64.8138V28.28C62.8138 28.28 62.0538 27.04 62.0538 25V15.32C62.0538 15.32 63.4138 13.64 64.0138 13.64C65.0538 13.64 65.6938 15.36 67.4938 15.36C68.9738 15.36 69.9738 14.36 69.9738 12.92C69.9738 11.4 69.0538 10.4 67.3338 10.4Z" fill="#161616"/>
<path d="M99.5331 1.16C98.0931 1.16 97.9731 1.16 96.5731 1.16H86.8931V1.68C89.7331 1.8 90.6931 3.08 90.6931 5.36V24.6C90.6931 26.88 89.7331 28.16 86.8931 28.28V28.8H100.373V28.28C97.5331 28.16 96.5731 26.88 96.5731 24.6V17H101.253C106.813 17 111.973 14.32 111.973 9.36C111.973 4.28 105.413 1.16 99.5331 1.16ZM100.733 15.88H96.5731V3.88C96.5731 2.76 97.5731 2.28 99.4531 2.28C103.053 2.28 105.653 5.24 105.653 9.24C105.653 13.36 103.893 15.88 100.733 15.88ZM126.904 10.4C125.384 10.4 124.144 11.72 123.144 12.8L121.624 14.4V10.4L113.384 12.96V13.32C115.424 13.32 116.264 13.92 116.264 15.92V25.08C116.264 27.04 115.504 28.28 113.464 28.28V28.8H124.384V28.28C122.384 28.28 121.624 27.04 121.624 25V15.32C121.624 15.32 122.984 13.64 123.584 13.64C124.624 13.64 125.264 15.36 127.064 15.36C128.544 15.36 129.544 14.36 129.544 12.92C129.544 11.4 128.624 10.4 126.904 10.4ZM136.325 8.6C138.205 8.6 139.725 7.2 139.725 5.44C139.725 3.68 138.205 2.24 136.325 2.24C134.485 2.24 132.965 3.68 132.965 5.44C132.965 7.2 134.485 8.6 136.325 8.6ZM139.085 25V10.4L130.845 12.96V13.32C132.885 13.32 133.725 13.92 133.725 15.92V25.08C133.725 27.04 132.965 28.28 130.925 28.28V28.8H141.845V28.28C139.845 28.28 139.085 27.04 139.085 25ZM154.128 24.84C149.888 24.84 147.567 21.84 147.567 17.4C147.567 14.04 148.888 11.24 151.048 11.24C153.928 11.24 152.768 17.52 159.448 17.52C158.528 15.68 158.048 12.56 158.128 10.4C157.248 10.68 156.408 10.96 155.088 10.96C153.168 10.96 152.808 10.4 151.128 10.4C146.768 10.4 142.968 15 142.968 19.96C142.968 25.28 146.368 29.2 151.448 29.2C155.648 29.2 158.848 25.68 159.608 22.64C158.248 24.04 156.128 24.84 154.128 24.84ZM166.989 8.6C168.869 8.6 170.389 7.2 170.389 5.44C170.389 3.68 168.869 2.24 166.989 2.24C165.149 2.24 163.629 3.68 163.629 5.44C163.629 7.2 165.149 8.6 166.989 8.6ZM169.749 25V10.4L161.509 12.96V13.32C163.549 13.32 164.389 13.92 164.389 15.92V25.08C164.389 27.04 163.629 28.28 161.589 28.28V28.8H172.509V28.28C170.509 28.28 169.749 27.04 169.749 25ZM193.775 25V14.24C193.735 12.12 192.455 10.4 189.855 10.4C187.495 10.4 185.335 11.48 182.015 13.28V10.4L173.775 12.96V13.32C175.815 13.32 176.655 13.96 176.655 15.92V25.08C176.655 27 175.895 28.24 173.935 28.28C173.935 28.28 173.895 28.28 173.855 28.28V28.8H184.535V28.28C182.495 28.28 182.015 27.16 182.015 25.12V14.2L182.735 13.84C183.535 13.4 185.015 12.56 186.175 12.56C187.815 12.56 188.375 13.76 188.375 15.56V25.24C188.375 27.16 187.895 28.28 185.895 28.28V28.8H196.535V28.28C194.495 28.28 193.775 27.04 193.775 25ZM213.239 27.2L202.639 25.44C202.159 25.32 201.399 25.2 201.399 24.64C201.399 24 203.079 23.56 203.639 23.4C204.919 23.96 206.279 24.28 207.639 24.28C211.399 24.28 215.799 21.8 215.799 17.28C215.799 14.56 214.239 12.56 212.159 11.44H217.319V10.64H210.319C209.439 10.4 208.519 10.24 207.639 10.24C203.839 10.24 199.439 12.72 199.439 17.28C199.439 19.84 200.879 21.76 202.799 22.96C200.839 23.6 198.039 24.56 198.039 27.04C198.039 29.2 200.439 30.04 202.359 30.44C200.919 30.72 196.919 32 196.919 34.24C196.919 37.08 202.119 38.32 206.959 38.32C212.079 38.32 217.679 36.48 217.679 32.16C217.679 28.84 215.239 27.6 213.239 27.2ZM207.639 10.92C209.199 10.92 210.199 12.96 210.199 17.28C210.199 21.56 209.199 23.6 207.639 23.6C206.039 23.6 205.039 21.56 205.039 17.28C205.039 12.96 206.039 10.92 207.639 10.92ZM206.959 37.32C203.599 37.32 200.439 36.28 200.439 34.08C200.439 31.96 202.839 31.2 203.999 30.8L211.639 32.04C212.679 32.2 214.039 32.52 214.039 34C214.039 35.96 210.159 37.32 206.959 37.32Z" fill="#D3A265"/>
</svg>
