<svg width="242" height="30" viewBox="0 0 242 30" fill="none" xmlns="http://www.w3.org/2000/svg">
<path d="M14.6294 0.759999C7.42938 0.759999 0.709377 6.08 0.709377 14.96C0.709377 23.84 7.42938 29.2 14.6294 29.2C21.8694 29.2 28.5894 23.84 28.5894 14.96C28.5894 6.08 21.8694 0.759999 14.6294 0.759999ZM14.6294 28.2C9.98938 28.2 7.02938 22.28 7.02938 14.96C7.02938 7.64 9.98938 1.72 14.6294 1.72C19.2694 1.72 22.2694 7.64 22.2694 14.96C22.2694 22.28 19.2694 28.2 14.6294 28.2ZM50.1019 25.12V10.4L41.8619 12.92V13.32C43.9019 13.32 44.7419 13.92 44.7419 15.92L44.7019 25.52L44.2619 25.76C43.4619 26.2 42.3419 27.04 41.0619 27.04C39.3819 27.04 38.8219 25.84 38.8219 24V10.4L30.5819 12.92V13.32C32.6219 13.32 33.4619 13.92 33.4619 15.92V25.36C33.4619 27.44 34.7819 29.16 37.3419 29.16C39.5419 29.16 41.5419 28.16 44.7019 26.44V28.76H52.6219V28.24C50.5819 28.24 50.1019 27.16 50.1019 25.12ZM67.7431 10.4C66.2231 10.4 64.9831 11.72 63.9831 12.8L62.4631 14.4V10.4L54.2231 12.96V13.32C56.2631 13.32 57.1031 13.92 57.1031 15.92V25.08C57.1031 27.04 56.3431 28.28 54.3031 28.28V28.8H65.2231V28.28C63.2231 28.28 62.4631 27.04 62.4631 25V15.32C62.4631 15.32 63.8231 13.64 64.4231 13.64C65.4631 13.64 66.1031 15.36 67.9031 15.36C69.3831 15.36 70.3831 14.36 70.3831 12.92C70.3831 11.4 69.4631 10.4 67.7431 10.4Z" fill="#161616"/>
<path d="M105.983 13.44C105.983 13.44 96.9425 9.12 96.7825 9.04C95.3425 8.36 93.5825 7.2 93.5825 4.84C93.5825 3.08 94.9025 1.76 97.2225 1.76C99.5025 1.76 101.023 2.96 102.423 4.48C103.503 5.68 104.543 6.92 105.703 8C106.423 8.72 107.503 9.4 108.783 9.64H108.943C108.143 6.92 107.223 3.52 107.543 0.759999H107.263C106.143 1.32 105.663 1.72 104.103 1.72C101.903 1.72 99.9825 0.759999 97.2625 0.759999C93.4225 0.759999 90.0225 4.04 90.0225 8.08C90.0225 11.92 93.1025 14.24 95.0625 15.16C95.2625 15.24 102.583 18.76 103.023 18.96C103.943 19.4 106.983 20.6 106.983 23.72C106.983 26.56 104.703 28.08 102.263 28.08C97.8625 28.08 96.7425 19.16 88.2625 19.16C89.7025 22.16 89.8625 25.76 89.5425 29.2H89.9425C90.9825 28.16 92.2225 27.52 93.5025 27.52C95.8625 27.52 98.5825 29.2 102.183 29.2C106.583 29.2 110.663 25.8 110.663 21.16C110.663 17.72 108.183 14.48 105.983 13.44ZM125.032 24.84C120.752 24.84 118.032 22.04 118.032 17.52H130.032C129.672 13 126.552 10.4 121.992 10.4C117.432 10.4 113.352 14.64 113.352 19.92C113.352 25.08 116.872 29.2 122.192 29.2C126.552 29.2 129.472 25.68 130.232 22.64C128.872 24.04 127.032 24.84 125.032 24.84ZM121.872 11.16C123.952 11.16 124.712 13.56 124.712 16.52H117.992C117.992 13.76 119.872 11.16 121.872 11.16ZM145.653 10.4C144.133 10.4 142.893 11.72 141.893 12.8L140.373 14.4V10.4L132.133 12.96V13.32C134.173 13.32 135.013 13.92 135.013 15.92V25.08C135.013 27.04 134.253 28.28 132.213 28.28V28.8H143.133V28.28C141.133 28.28 140.373 27.04 140.373 25V15.32C140.373 15.32 141.733 13.64 142.333 13.64C143.373 13.64 144.013 15.36 145.813 15.36C147.293 15.36 148.293 14.36 148.293 12.92C148.293 11.4 147.373 10.4 145.653 10.4ZM162.553 10.8V11.32C165.393 11.32 166.033 14.92 165.153 17.24L162.673 22.76C161.393 20 160.153 17.48 159.033 15.04C157.953 12.6 158.553 11.32 160.793 11.32V10.8H149.313V11.32C151.353 11.48 152.273 12.92 153.033 14.48L160.313 29.16H160.753L165.873 17.8C167.033 15.16 169.353 11.72 171.793 11.32V10.8H162.553ZM178.481 8.6C180.361 8.6 181.881 7.2 181.881 5.44C181.881 3.68 180.361 2.24 178.481 2.24C176.641 2.24 175.121 3.68 175.121 5.44C175.121 7.2 176.641 8.6 178.481 8.6ZM181.241 25V10.4L173.001 12.96V13.32C175.041 13.32 175.881 13.92 175.881 15.92V25.08C175.881 27.04 175.121 28.28 173.081 28.28V28.8H184.001V28.28C182.001 28.28 181.241 27.04 181.241 25ZM196.484 24.84C192.244 24.84 189.924 21.84 189.924 17.4C189.924 14.04 191.244 11.24 193.404 11.24C196.284 11.24 195.124 17.52 201.804 17.52C200.884 15.68 200.404 12.56 200.484 10.4C199.604 10.68 198.764 10.96 197.444 10.96C195.524 10.96 195.164 10.4 193.484 10.4C189.124 10.4 185.324 15 185.324 19.96C185.324 25.28 188.724 29.2 193.804 29.2C198.004 29.2 201.204 25.68 201.964 22.64C200.604 24.04 198.484 24.84 196.484 24.84ZM216.305 24.84C212.025 24.84 209.305 22.04 209.305 17.52H221.305C220.945 13 217.825 10.4 213.265 10.4C208.705 10.4 204.625 14.64 204.625 19.92C204.625 25.08 208.145 29.2 213.465 29.2C217.825 29.2 220.745 25.68 221.505 22.64C220.145 24.04 218.305 24.84 216.305 24.84ZM213.145 11.16C215.225 11.16 215.985 13.56 215.985 16.52H209.265C209.265 13.76 211.145 11.16 213.145 11.16ZM237 18.52L230.08 15.52C229.2 15.12 227.92 14.72 227.92 13.12C227.92 11.8 228.96 11.08 230.36 11.08C233.96 11.08 234.6 16.24 239.92 16.24C239.04 14.4 238.64 12.56 238.72 10.4C237.84 10.68 237.08 11.08 235.56 11.08C233.4 11.08 232.2 10.4 230.36 10.4C227.24 10.4 224.96 12.76 224.96 15.48C224.96 18.72 227.24 20 228.96 20.8L235.44 23.6C236.52 24.08 238.36 24.68 238.36 26.2C238.36 27.76 236.88 28.44 235.36 28.44V29.16C238.44 29.16 241.24 27.12 241.24 23.88C241.24 21.2 239.48 19.64 237 18.52ZM225.36 29.16C226.08 28.88 227.08 28.52 228.52 28.52C230.64 28.52 233.68 29.16 235.36 29.16V28.44C231.48 28.44 230.16 23 224.08 23C224.96 24.84 225.44 27 225.36 29.16Z" fill="#D3A265"/>
</svg>
