<svg width="241" height="30" viewBox="0 0 241 30" fill="none" xmlns="http://www.w3.org/2000/svg">
<path d="M14.62 0.759999C7.42 0.759999 0.7 6.08 0.7 14.96C0.7 23.84 7.42 29.2 14.62 29.2C21.86 29.2 28.58 23.84 28.58 14.96C28.58 6.08 21.86 0.759999 14.62 0.759999ZM14.62 28.2C9.98 28.2 7.02 22.28 7.02 14.96C7.02 7.64 9.98 1.72 14.62 1.72C19.26 1.72 22.26 7.64 22.26 14.96C22.26 22.28 19.26 28.2 14.62 28.2ZM49.8925 25.12V10.4L41.6525 12.92V13.32C43.6925 13.32 44.5325 13.92 44.5325 15.92L44.4925 25.52L44.0525 25.76C43.2525 26.2 42.1325 27.04 40.8525 27.04C39.1725 27.04 38.6125 25.84 38.6125 24V10.4L30.3725 12.92V13.32C32.4125 13.32 33.2525 13.92 33.2525 15.92V25.36C33.2525 27.44 34.5725 29.16 37.1325 29.16C39.3325 29.16 41.3325 28.16 44.4925 26.44V28.76H52.4125V28.24C50.3725 28.24 49.8925 27.16 49.8925 25.12ZM67.3338 10.4C65.8138 10.4 64.5738 11.72 63.5738 12.8L62.0538 14.4V10.4L53.8138 12.96V13.32C55.8538 13.32 56.6938 13.92 56.6938 15.92V25.08C56.6938 27.04 55.9338 28.28 53.8938 28.28V28.8H64.8138V28.28C62.8138 28.28 62.0538 27.04 62.0538 25V15.32C62.0538 15.32 63.4138 13.64 64.0138 13.64C65.0538 13.64 65.6938 15.36 67.4938 15.36C68.9738 15.36 69.9738 14.36 69.9738 12.92C69.9738 11.4 69.0538 10.4 67.3338 10.4Z" fill="#161616"/>
<path d="M99.5331 1.16C98.0931 1.16 97.9731 1.16 96.5731 1.16H86.8931V1.68C89.7331 1.8 90.6931 3.08 90.6931 5.36V24.6C90.6931 26.88 89.7331 28.16 86.8931 28.28V28.8H100.373V28.28C97.5331 28.16 96.5731 26.88 96.5731 24.6V17H101.253C106.813 17 111.973 14.32 111.973 9.36C111.973 4.28 105.413 1.16 99.5331 1.16ZM100.733 15.88H96.5731V3.88C96.5731 2.76 97.5731 2.28 99.4531 2.28C103.053 2.28 105.653 5.24 105.653 9.24C105.653 13.36 103.893 15.88 100.733 15.88ZM121.983 10.36C116.903 10.36 112.303 13.92 112.303 19.76C112.303 25.64 116.903 29.16 121.983 29.16C127.103 29.16 131.703 25.64 131.703 19.76C131.703 13.92 127.103 10.36 121.983 10.36ZM121.983 28.24C119.463 28.24 118.063 24.92 118.063 19.76C118.063 14.52 119.463 11.28 121.983 11.28C124.503 11.28 125.903 14.52 125.903 19.76C125.903 25 124.503 28.24 121.983 28.24ZM146.631 10.4C145.111 10.4 143.871 11.72 142.871 12.8L141.351 14.4V10.4L133.111 12.96V13.32C135.151 13.32 135.991 13.92 135.991 15.92V25.08C135.991 27.04 135.231 28.28 133.191 28.28V28.8H144.111V28.28C142.111 28.28 141.351 27.04 141.351 25V15.32C141.351 15.32 142.711 13.64 143.311 13.64C144.351 13.64 144.991 15.36 146.791 15.36C148.271 15.36 149.271 14.36 149.271 12.92C149.271 11.4 148.351 10.4 146.631 10.4ZM162.772 25.4C162.532 26 162.052 27.16 160.692 27.16C159.572 27.16 158.692 26.4 158.692 24.8V11.52H162.412V10.76H158.692V4H158.132C157.132 6.72 154.132 10.6 150.252 10.76V11.52H153.332V24.8C153.332 27.4 154.772 29.16 158.212 29.16C160.852 29.16 162.732 27.36 163.372 25.4H162.772ZM167.752 5.76C167.752 4.96 168.352 4.32 169.312 4.32C170.792 4.32 172.072 6 173.912 6C175.192 6 176.312 5.2 176.312 3.6C176.312 2.04 174.712 0.799998 172.432 0.799998C169.232 0.799998 166.912 3.28 166.912 5.8C166.912 8.36 167.672 9.56 167.672 10.88H164.592V11.64H167.672V25.08C167.672 27.04 166.952 28.28 164.912 28.28V28.8H175.832V28.28C173.832 28.28 173.072 27.04 173.072 25V11.64H176.192V10.88C172.632 10.88 167.752 8.08 167.752 5.76ZM186.436 10.36C181.356 10.36 176.756 13.92 176.756 19.76C176.756 25.64 181.356 29.16 186.436 29.16C191.556 29.16 196.156 25.64 196.156 19.76C196.156 13.92 191.556 10.36 186.436 10.36ZM186.436 28.24C183.916 28.24 182.516 24.92 182.516 19.76C182.516 14.52 183.916 11.28 186.436 11.28C188.956 11.28 190.356 14.52 190.356 19.76C190.356 25 188.956 28.24 186.436 28.24ZM205.288 25V0.439998L197.048 3V3.36C199.088 3.36 199.928 4 199.928 6V25.08C199.928 27.04 199.168 28.28 197.128 28.28V28.8H208.048V28.28C206.048 28.28 205.288 27.04 205.288 25ZM214.802 8.6C216.682 8.6 218.202 7.2 218.202 5.44C218.202 3.68 216.682 2.24 214.802 2.24C212.962 2.24 211.442 3.68 211.442 5.44C211.442 7.2 212.962 8.6 214.802 8.6ZM217.562 25V10.4L209.322 12.96V13.32C211.362 13.32 212.202 13.92 212.202 15.92V25.08C212.202 27.04 211.442 28.28 209.402 28.28V28.8H220.322V28.28C218.322 28.28 217.562 27.04 217.562 25ZM231.084 10.36C226.004 10.36 221.404 13.92 221.404 19.76C221.404 25.64 226.004 29.16 231.084 29.16C236.204 29.16 240.804 25.64 240.804 19.76C240.804 13.92 236.204 10.36 231.084 10.36ZM231.084 28.24C228.564 28.24 227.164 24.92 227.164 19.76C227.164 14.52 228.564 11.28 231.084 11.28C233.604 11.28 235.004 14.52 235.004 19.76C235.004 25 233.604 28.24 231.084 28.24Z" fill="#D3A265"/>
</svg>
